<svg xmlns="http://www.w3.org/2000/svg" viewBox="0 0 1169 2292" width="1169" height="2292" role="img" aria-label="Order to Cash swimlane process map — 18 tasks across 5 lanes" font-family="Verdana"><defs><marker id="pmg-arrow" markerWidth="10" markerHeight="10" refX="9" refY="4.5" orient="auto" markerUnits="userSpaceOnUse"><path d="M0,0 L9,4.5 L0,9 L2.25,4.5 z" fill="#4d4d4d"/></marker></defs><rect x="0" y="0" width="1169" height="2292" fill="#ffffff"/><rect x="40" y="0" width="1110" height="44" rx="4" fill="#f0f0f0" stroke="#999999"/><text x="595" y="22" text-anchor="middle" dominant-baseline="central" font-size="15" font-weight="700" fill="#222222">Order to Cash  —  Operations</text><rect x="40" y="50" width="1110" height="286" fill="#f7f7f7" stroke="#999999"/><rect x="40" y="50" width="32" height="286" fill="#e6e6e6" stroke="#999999"/><text transform="rotate(-90 56 193)" x="56" y="193" text-anchor="middle" dominant-baseline="central" font-size="12" font-weight="700" fill="#222222">Customer</text><rect x="40" y="336" width="1110" height="414" fill="#f7f7f7" stroke="#999999"/><rect x="40" y="336" width="32" height="414" fill="#e6e6e6" stroke="#999999"/><text transform="rotate(-90 56 543)" x="56" y="543" text-anchor="middle" dominant-baseline="central" font-size="12" font-weight="700" fill="#222222">Sales</text><rect x="40" y="750" width="1110" height="542" fill="#f7f7f7" stroke="#999999"/><rect x="40" y="750" width="32" height="542" fill="#e6e6e6" stroke="#999999"/><text transform="rotate(-90 56 1021)" x="56" y="1021" text-anchor="middle" dominant-baseline="central" font-size="12" font-weight="700" fill="#222222">Warehouse</text><rect x="40" y="1292" width="1110" height="414" fill="#f7f7f7" stroke="#999999"/><rect x="40" y="1292" width="32" height="414" fill="#e6e6e6" stroke="#999999"/><text transform="rotate(-90 56 1499)" x="56" y="1499" text-anchor="middle" dominant-baseline="central" font-size="12" font-weight="700" fill="#222222">Finance</text><rect x="40" y="1706" width="1110" height="542" fill="#f7f7f7" stroke="#999999"/><rect x="40" y="1706" width="32" height="542" fill="#e6e6e6" stroke="#999999"/><text transform="rotate(-90 56 1977)" x="56" y="1977" text-anchor="middle" dominant-baseline="central" font-size="12" font-weight="700" fill="#222222">Support</text><path d="M237,112L310,112" fill="none" stroke="#4d4d4d" stroke-width="1.5" stroke-linejoin="round" marker-end="url(#pmg-arrow)"/><path d="M395,154L395,388Q395,398 405,398L520,398" fill="none" stroke="#4d4d4d" stroke-width="1.5" stroke-linejoin="round" marker-end="url(#pmg-arrow)"/><path d="M605,440L605,802Q605,812 615,812L740,812" fill="none" stroke="#4d4d4d" stroke-width="1.5" stroke-linejoin="round" marker-end="url(#pmg-arrow)"/><path d="M690,1203L888,1203Q898,1203 898,1193L898,874Q898,864 908,864L1001,864Q1011,864 1011,859L1011,854" fill="none" stroke="#4d4d4d" stroke-width="1.5" stroke-linejoin="round" marker-end="url(#pmg-arrow)"/><path d="M1025,854L1025,898" fill="none" stroke="#4d4d4d" stroke-width="1.5" stroke-linejoin="round" marker-end="url(#pmg-arrow)"/><path d="M940,940L903.5,940C903.5,932.85 892.5,932.85 892.5,940L892.5,940L890,940" fill="none" stroke="#4d4d4d" stroke-width="1.5" stroke-linejoin="round" marker-end="url(#pmg-arrow)"/><path d="M520,940L405,940Q395,940 395,950L395,1312" fill="none" stroke="#4d4d4d" stroke-width="1.5" stroke-linejoin="round" marker-end="url(#pmg-arrow)"/><path d="M310,1354L260,1354" fill="none" stroke="#4d4d4d" stroke-width="1.5" stroke-linejoin="round" marker-end="url(#pmg-arrow)"/><path d="M815,1568L815,1548Q815,1538 805,1538L294,1538Q284,1538 284,1528L284,1359.5C291.15,1359.5 291.15,1348.5 284,1348.5L284,1348.5L284,1078Q284,1068 277,1068L270,1068" fill="none" stroke="#4d4d4d" stroke-width="1.5" stroke-linejoin="round" marker-end="url(#pmg-arrow)"/><path d="M185,1026L185,536Q185,526 195,526L310,526" fill="none" stroke="#4d4d4d" stroke-width="1.5" stroke-linejoin="round" marker-end="url(#pmg-arrow)"/><path d="M480,526L496,526Q506,526 506,536L506,934.5C513.15,934.5 513.15,945.5 506,945.5L506,945.5L506,1532.5C513.15,1532.5 513.15,1543.5 506,1543.5L506,1543.5L506,1758Q506,1768 516,1768L530,1768" fill="none" stroke="#4d4d4d" stroke-width="1.5" stroke-linejoin="round" marker-end="url(#pmg-arrow)"/><path d="M1110,2152L1126,2152Q1136,2152 1136,2142L1136,480Q1136,470 1126,470L825,470Q815,470 815,477L815,484" fill="none" stroke="#4d4d4d" stroke-width="1.5" stroke-linejoin="round" marker-end="url(#pmg-arrow)"/><path d="M900,519L1114,519Q1124,519 1124,529L1124,1758Q1124,1768 1114,1768L1100,1768" fill="none" stroke="#4d4d4d" stroke-width="1.5" stroke-linejoin="round" marker-end="url(#pmg-arrow)"/><path d="M940,1896L900,1896" fill="none" stroke="#4d4d4d" stroke-width="1.5" stroke-linejoin="round" marker-end="url(#pmg-arrow)"/><path d="M730,1896L680,1896" fill="none" stroke="#4d4d4d" stroke-width="1.5" stroke-linejoin="round" marker-end="url(#pmg-arrow)"/><path d="M310,1896L270,1896" fill="none" stroke="#4d4d4d" stroke-width="1.5" stroke-linejoin="round" marker-end="url(#pmg-arrow)"/><path d="M100,1896L93,1896Q86,1896 86,1886L86,250Q86,240 93,240L100,240" fill="none" stroke="#4d4d4d" stroke-width="1.5" stroke-linejoin="round" marker-end="url(#pmg-arrow)"/><path d="M270,240L286,240Q296,240 296,250L296,520.5C303.15,520.5 303.15,531.5 296,531.5L296,531.5L296,1348.5C303.15,1348.5 303.15,1359.5 296,1359.5L296,1359.5L296,1472Q296,1482 303,1482L310,1482" fill="none" stroke="#4d4d4d" stroke-width="1.5" stroke-linejoin="round" marker-end="url(#pmg-arrow)"/><path d="M480,1482L500.5,1482C500.5,1474.85 511.5,1474.85 511.5,1482L511.5,1482L553,1482" fill="none" stroke="#4d4d4d" stroke-width="1.5" stroke-linejoin="round" marker-end="url(#pmg-arrow)"/><path d="M890,812L940,812" fill="none" stroke="#4d4d4d" stroke-width="1.5" stroke-linejoin="round" marker-end="url(#pmg-arrow)"/><path d="M815,856L815,872Q815,882 805,882L714,882Q704,882 704,892L704,1179Q704,1189 697,1189L690,1189" fill="none" stroke="#4d4d4d" stroke-width="1.5" stroke-linejoin="round" marker-end="url(#pmg-arrow)"/><path d="M740,940L709.5,940C709.5,932.85 698.5,932.85 698.5,940L698.5,940L690,940" fill="none" stroke="#4d4d4d" stroke-width="1.5" stroke-linejoin="round" marker-end="url(#pmg-arrow)"/><path d="M815,984L815,1197.5C822.15,1197.5 822.15,1208.5 815,1208.5L815,1208.5L815,1344Q815,1354 805,1354L511.5,1354C511.5,1346.85 500.5,1346.85 500.5,1354L500.5,1354L480,1354" fill="none" stroke="#4d4d4d" stroke-width="1.5" stroke-linejoin="round" marker-end="url(#pmg-arrow)"/><path d="M185,1310L185,1110" fill="none" stroke="#4d4d4d" stroke-width="1.5" stroke-linejoin="round" marker-end="url(#pmg-arrow)"/><path d="M185,1398L185,1600Q185,1610 195,1610L500.5,1610C500.5,1602.85 511.5,1602.85 511.5,1610L511.5,1610L730,1610" fill="none" stroke="#4d4d4d" stroke-width="1.5" stroke-linejoin="round" marker-end="url(#pmg-arrow)"/><path d="M680,1768L904,1768Q914,1768 914,1758L914,945.5C921.15,945.5 921.15,934.5 914,934.5L914,934.5L914,869.5C921.15,869.5 921.15,858.5 914,858.5L914,858.5L914,817.5C921.15,817.5 921.15,806.5 914,806.5L914,806.5L914,543Q914,533 907,533L900,533" fill="none" stroke="#4d4d4d" stroke-width="1.5" stroke-linejoin="round" marker-end="url(#pmg-arrow)"/><path d="M605,1812L605,1828Q605,1838 615,1838L916,1838Q926,1838 926,1848L926,1890.5C933.15,1890.5 933.15,1901.5 926,1901.5L926,1901.5L926,2142Q926,2152 933,2152L940,2152" fill="none" stroke="#4d4d4d" stroke-width="1.5" stroke-linejoin="round" marker-end="url(#pmg-arrow)"/><path d="M1025,1812L1025,1854" fill="none" stroke="#4d4d4d" stroke-width="1.5" stroke-linejoin="round" marker-end="url(#pmg-arrow)"/><path d="M950,1768L936,1768Q926,1768 926,1758L926,945.5C933.15,945.5 933.15,934.5 926,934.5L926,934.5L926,869.5C933.15,869.5 933.15,858.5 926,858.5L926,858.5L926,817.5C933.15,817.5 933.15,806.5 926,806.5L926,806.5L926,664Q926,654 936,654L973,654" fill="none" stroke="#4d4d4d" stroke-width="1.5" stroke-linejoin="round" marker-end="url(#pmg-arrow)"/><path d="M530,1896L480,1896" fill="none" stroke="#4d4d4d" stroke-width="1.5" stroke-linejoin="round" marker-end="url(#pmg-arrow)"/><path d="M605,1940L605,2014Q605,2024 615,2024L763,2024" fill="none" stroke="#4d4d4d" stroke-width="1.5" stroke-linejoin="round" marker-end="url(#pmg-arrow)"/><rect x="897.77" y="803.75" width="28.46" height="16.5" rx="3" fill="#ffffff"/><text x="912" y="812" text-anchor="middle" dominant-baseline="central" font-size="11" fill="#333333">Yes</text><rect x="804.18" y="869.75" width="21.64" height="16.5" rx="3" fill="#ffffff"/><text x="815" y="878" text-anchor="middle" dominant-baseline="central" font-size="11" fill="#333333">No</text><rect x="703.77" y="931.75" width="28.46" height="16.5" rx="3" fill="#ffffff"/><text x="718" y="940" text-anchor="middle" dominant-baseline="central" font-size="11" fill="#333333">Yes</text><rect x="804.18" y="997.75" width="21.64" height="16.5" rx="3" fill="#ffffff"/><text x="815" y="1006" text-anchor="middle" dominant-baseline="central" font-size="11" fill="#333333">No</text><rect x="170.77" y="1279.75" width="28.46" height="16.5" rx="3" fill="#ffffff"/><text x="185" y="1288" text-anchor="middle" dominant-baseline="central" font-size="11" fill="#333333">Yes</text><rect x="174.18" y="1411.75" width="21.64" height="16.5" rx="3" fill="#ffffff"/><text x="185" y="1420" text-anchor="middle" dominant-baseline="central" font-size="11" fill="#333333">No</text><rect x="687.77" y="1759.75" width="28.46" height="16.5" rx="3" fill="#ffffff"/><text x="702" y="1768" text-anchor="middle" dominant-baseline="central" font-size="11" fill="#333333">Yes</text><rect x="594.18" y="1825.75" width="21.64" height="16.5" rx="3" fill="#ffffff"/><text x="605" y="1834" text-anchor="middle" dominant-baseline="central" font-size="11" fill="#333333">No</text><rect x="1010.77" y="1825.75" width="28.46" height="16.5" rx="3" fill="#ffffff"/><text x="1025" y="1834" text-anchor="middle" dominant-baseline="central" font-size="11" fill="#333333">Yes</text><rect x="917.18" y="1759.75" width="21.64" height="16.5" rx="3" fill="#ffffff"/><text x="928" y="1768" text-anchor="middle" dominant-baseline="central" font-size="11" fill="#333333">No</text><rect x="493.77" y="1887.75" width="28.46" height="16.5" rx="3" fill="#ffffff"/><text x="508" y="1896" text-anchor="middle" dominant-baseline="central" font-size="11" fill="#333333">Yes</text><rect x="594.18" y="1953.75" width="21.64" height="16.5" rx="3" fill="#ffffff"/><text x="605" y="1962" text-anchor="middle" dominant-baseline="central" font-size="11" fill="#333333">No</text><rect x="133" y="84" width="104" height="56" rx="28" ry="28" fill="#dae8fc" stroke="#6c8ebf" stroke-width="1.5"/><text x="185" y="115.6" text-anchor="middle" font-size="12" fill="#0a2a5e">Start</text><rect x="310" y="70" width="170" height="84" rx="8" fill="#d5e8d4" stroke="#82b366" stroke-width="1.5"/><text x="395" y="115.6" text-anchor="middle" font-size="12" fill="#14351f">Place order</text><rect x="520" y="356" width="170" height="84" rx="8" fill="#d5e8d4" stroke="#82b366" stroke-width="1.5"/><text x="605" y="401.6" text-anchor="middle" font-size="12" fill="#14351f">Acknowledge order</text><polygon points="815,768 890,812 815,856 740,812" fill="#ffe6cc" stroke="#d79b00" stroke-width="1.5"/><text x="815" y="808.4" text-anchor="middle" font-size="12" fill="#663d00">Stock</text><text x="815" y="822.8" text-anchor="middle" font-size="12" fill="#663d00">available?</text><rect x="940" y="770" width="170" height="84" rx="8" fill="#d5e8d4" stroke="#82b366" stroke-width="1.5"/><text x="1025" y="815.6" text-anchor="middle" font-size="12" fill="#14351f">Pick items</text><rect x="940" y="898" width="170" height="84" rx="8" fill="#d5e8d4" stroke="#82b366" stroke-width="1.5"/><text x="1025" y="943.6" text-anchor="middle" font-size="12" fill="#14351f">Pack shipment</text><polygon points="815,896 890,940 815,984 740,940" fill="#ffe6cc" stroke="#d79b00" stroke-width="1.5"/><text x="815" y="936.4" text-anchor="middle" font-size="12" fill="#663d00">Fragile</text><text x="815" y="950.8" text-anchor="middle" font-size="12" fill="#663d00">goods?</text><rect x="520" y="898" width="170" height="84" rx="8" fill="#d5e8d4" stroke="#82b366" stroke-width="1.5"/><text x="605" y="936.4" text-anchor="middle" font-size="12" fill="#14351f">Add protective</text><text x="605" y="950.8" text-anchor="middle" font-size="12" fill="#14351f">packaging</text><rect x="310" y="1312" width="170" height="84" rx="8" fill="#d5e8d4" stroke="#82b366" stroke-width="1.5"/><text x="395" y="1357.6" text-anchor="middle" font-size="12" fill="#14351f">Generate invoice</text><polygon points="185,1310 260,1354 185,1398 110,1354" fill="#ffe6cc" stroke="#d79b00" stroke-width="1.5"/><text x="185" y="1350.4" text-anchor="middle" font-size="12" fill="#663d00">Credit</text><text x="185" y="1364.8" text-anchor="middle" font-size="12" fill="#663d00">approved?</text><rect x="100" y="1026" width="170" height="84" rx="8" fill="#d5e8d4" stroke="#82b366" stroke-width="1.5"/><text x="185" y="1071.6" text-anchor="middle" font-size="12" fill="#14351f">Dispatch shipment</text><rect x="310" y="484" width="170" height="84" rx="8" fill="#d5e8d4" stroke="#82b366" stroke-width="1.5"/><text x="395" y="522.4" text-anchor="middle" font-size="12" fill="#14351f">Send tracking</text><text x="395" y="536.8" text-anchor="middle" font-size="12" fill="#14351f">details</text><polygon points="605,1724 680,1768 605,1812 530,1768" fill="#ffe6cc" stroke="#d79b00" stroke-width="1.5"/><text x="605" y="1764.4" text-anchor="middle" font-size="12" fill="#663d00">Delivery</text><text x="605" y="1778.8" text-anchor="middle" font-size="12" fill="#663d00">confirmed?</text><rect x="730" y="484" width="170" height="84" rx="8" fill="#d5e8d4" stroke="#82b366" stroke-width="1.5"/><text x="815" y="529.6" text-anchor="middle" font-size="12" fill="#14351f">Close order</text><polygon points="1025,1724 1100,1768 1025,1812 950,1768" fill="#ffe6cc" stroke="#d79b00" stroke-width="1.5"/><text x="1025" y="1764.4" text-anchor="middle" font-size="12" fill="#663d00">Feedback</text><text x="1025" y="1778.8" text-anchor="middle" font-size="12" fill="#663d00">requested?</text><rect x="940" y="1854" width="170" height="84" rx="8" fill="#d5e8d4" stroke="#82b366" stroke-width="1.5"/><text x="1025" y="1899.6" text-anchor="middle" font-size="12" fill="#14351f">Send feedback survey</text><rect x="730" y="1854" width="170" height="84" rx="8" fill="#d5e8d4" stroke="#82b366" stroke-width="1.5"/><text x="815" y="1899.6" text-anchor="middle" font-size="12" fill="#14351f">Record feedback</text><polygon points="605,1852 680,1896 605,1940 530,1896" fill="#ffe6cc" stroke="#d79b00" stroke-width="1.5"/><text x="605" y="1892.4" text-anchor="middle" font-size="12" fill="#663d00">Issue</text><text x="605" y="1906.8" text-anchor="middle" font-size="12" fill="#663d00">reported?</text><rect x="310" y="1854" width="170" height="84" rx="8" fill="#d5e8d4" stroke="#82b366" stroke-width="1.5"/><text x="395" y="1892.4" text-anchor="middle" font-size="12" fill="#14351f">Create support</text><text x="395" y="1906.8" text-anchor="middle" font-size="12" fill="#14351f">ticket</text><rect x="100" y="1854" width="170" height="84" rx="8" fill="#d5e8d4" stroke="#82b366" stroke-width="1.5"/><text x="185" y="1899.6" text-anchor="middle" font-size="12" fill="#14351f">Resolve issue</text><rect x="100" y="198" width="170" height="84" rx="8" fill="#d5e8d4" stroke="#82b366" stroke-width="1.5"/><text x="185" y="243.6" text-anchor="middle" font-size="12" fill="#14351f">Confirm resolution</text><rect x="310" y="1440" width="170" height="84" rx="8" fill="#d5e8d4" stroke="#82b366" stroke-width="1.5"/><text x="395" y="1485.6" text-anchor="middle" font-size="12" fill="#14351f">Archive order record</text><rect x="553" y="1454" width="104" height="56" rx="28" ry="28" fill="#dae8fc" stroke="#6c8ebf" stroke-width="1.5"/><text x="605" y="1478.4" text-anchor="middle" font-size="12" fill="#0a2a5e">Order</text><text x="605" y="1492.8" text-anchor="middle" font-size="12" fill="#0a2a5e">archived</text><rect x="763" y="1996" width="104" height="56" rx="28" ry="28" fill="#dae8fc" stroke="#6c8ebf" stroke-width="1.5"/><text x="815" y="2013.2" text-anchor="middle" font-size="12" fill="#0a2a5e">Order</text><text x="815" y="2027.6" text-anchor="middle" font-size="12" fill="#0a2a5e">closed with</text><text x="815" y="2042" text-anchor="middle" font-size="12" fill="#0a2a5e">feedback</text><rect x="973" y="626" width="104" height="56" rx="28" ry="28" fill="#dae8fc" stroke="#6c8ebf" stroke-width="1.5"/><text x="1025" y="650.4" text-anchor="middle" font-size="12" fill="#0a2a5e">Order</text><text x="1025" y="664.8" text-anchor="middle" font-size="12" fill="#0a2a5e">closed</text><rect x="940" y="2110" width="170" height="84" rx="8" fill="#d5e8d4" stroke="#82b366" stroke-width="1.5"/><text x="1025" y="2148.4" text-anchor="middle" font-size="12" fill="#14351f">Investigate delivery</text><text x="1025" y="2162.8" text-anchor="middle" font-size="12" fill="#14351f">issue</text><rect x="730" y="1568" width="170" height="84" rx="8" fill="#d5e8d4" stroke="#82b366" stroke-width="1.5"/><text x="815" y="1613.6" text-anchor="middle" font-size="12" fill="#14351f">Request prepayment</text><rect x="520" y="1154" width="170" height="84" rx="8" fill="#d5e8d4" stroke="#82b366" stroke-width="1.5"/><text x="605" y="1199.6" text-anchor="middle" font-size="12" fill="#14351f">Backorder item</text><text x="40" y="2272" dominant-baseline="central" font-size="11" font-weight="700" fill="#333333">Legend</text><rect x="100" y="2262" width="20" height="20" rx="3" fill="#d5e8d4" stroke="#82b366"/><text x="124" y="2272" dominant-baseline="central" font-size="11" fill="#333333">Process / action</text><rect x="282" y="2262" width="20" height="20" rx="3" fill="#ffe6cc" stroke="#d79b00"/><text x="306" y="2272" dominant-baseline="central" font-size="11" fill="#333333">Decision</text><rect x="464" y="2262" width="20" height="20" rx="3" fill="#dae8fc" stroke="#6c8ebf"/><text x="488" y="2272" dominant-baseline="central" font-size="11" fill="#333333">Start / End</text><text x="1150" y="2273" text-anchor="end" dominant-baseline="central" font-size="11" fill="#888888">Mapped with GrowThriveScale · growthrivescale.com · v1.4.0</text></svg>