<svg xmlns="http://www.w3.org/2000/svg" viewBox="0 0 1169 380" width="1169" height="380" role="img" aria-label="XPR Marketing Expense Process swimlane process map — 0 tasks across 1 lanes" font-family="Verdana"><defs><marker id="pmg-arrow" markerWidth="10" markerHeight="10" refX="7.5" refY="3" orient="auto" markerUnits="strokeWidth"><path d="M0,0 L8,3 L0,6 z" fill="#4d4d4d"/></marker></defs><rect x="0" y="0" width="1169" height="380" fill="#ffffff"/><rect x="40" y="0" width="1110" height="44" rx="4" fill="#f0f0f0" stroke="#999999"/><text x="595" y="22" text-anchor="middle" dominant-baseline="central" font-size="15" font-weight="700" fill="#222222">XPR Marketing Expense Process  —  Overview</text><rect x="40" y="50" width="1110" height="286" fill="#f7f7f7" stroke="#999999"/><rect x="40" y="50" width="32" height="286" fill="#e6e6e6" stroke="#999999"/><text transform="rotate(-90 56 193)" x="56" y="193" text-anchor="middle" dominant-baseline="central" font-size="12" font-weight="700" fill="#222222">Phases</text><polyline points="232,112 300,112" fill="none" stroke="#4d4d4d" stroke-width="1.5" marker-end="url(#pmg-arrow)"/><polyline points="480,112 510,112" fill="none" stroke="#4d4d4d" stroke-width="1.5" marker-end="url(#pmg-arrow)"/><polyline points="690,112 720,112" fill="none" stroke="#4d4d4d" stroke-width="1.5" marker-end="url(#pmg-arrow)"/><polyline points="900,112 930,112" fill="none" stroke="#4d4d4d" stroke-width="1.5" marker-end="url(#pmg-arrow)"/><polyline points="1020,154 1020,198" fill="none" stroke="#4d4d4d" stroke-width="1.5" marker-end="url(#pmg-arrow)"/><polyline points="930,240 900,240" fill="none" stroke="#4d4d4d" stroke-width="1.5" marker-end="url(#pmg-arrow)"/><polyline points="720,240 652,240" fill="none" stroke="#4d4d4d" stroke-width="1.5" marker-end="url(#pmg-arrow)"/><rect x="128" y="84" width="104" height="56" rx="28" ry="28" fill="#dae8fc" stroke="#6c8ebf" stroke-width="1.5"/><text x="180" y="115.6" text-anchor="middle" font-size="12" fill="#0a2a5e">Start</text><rect x="300" y="70" width="180" height="84" rx="4" fill="#e1d5e7" stroke="#9673a6" stroke-width="1.5"/><line x1="310" y1="70" x2="310" y2="154" stroke="#9673a6"/><line x1="470" y1="70" x2="470" y2="154" stroke="#9673a6"/><text x="390" y="115.6" text-anchor="middle" font-size="12" fill="#3a2a4d">Expense Request</text><rect x="510" y="70" width="180" height="84" rx="4" fill="#e1d5e7" stroke="#9673a6" stroke-width="1.5"/><line x1="520" y1="70" x2="520" y2="154" stroke="#9673a6"/><line x1="680" y1="70" x2="680" y2="154" stroke="#9673a6"/><text x="600" y="115.6" text-anchor="middle" font-size="12" fill="#3a2a4d">Vendor Onboarding</text><rect x="720" y="70" width="180" height="84" rx="4" fill="#e1d5e7" stroke="#9673a6" stroke-width="1.5"/><line x1="730" y1="70" x2="730" y2="154" stroke="#9673a6"/><line x1="890" y1="70" x2="890" y2="154" stroke="#9673a6"/><text x="810" y="115.6" text-anchor="middle" font-size="12" fill="#3a2a4d">Non-Catalog Request</text><rect x="930" y="70" width="180" height="84" rx="4" fill="#e1d5e7" stroke="#9673a6" stroke-width="1.5"/><line x1="940" y1="70" x2="940" y2="154" stroke="#9673a6"/><line x1="1100" y1="70" x2="1100" y2="154" stroke="#9673a6"/><text x="1020" y="115.6" text-anchor="middle" font-size="12" fill="#3a2a4d">PO Approval &amp; Issuance</text><rect x="930" y="198" width="180" height="84" rx="4" fill="#e1d5e7" stroke="#9673a6" stroke-width="1.5"/><line x1="940" y1="198" x2="940" y2="282" stroke="#9673a6"/><line x1="1100" y1="198" x2="1100" y2="282" stroke="#9673a6"/><text x="1020" y="243.6" text-anchor="middle" font-size="12" fill="#3a2a4d">Invoicing</text><rect x="720" y="198" width="180" height="84" rx="4" fill="#e1d5e7" stroke="#9673a6" stroke-width="1.5"/><line x1="730" y1="198" x2="730" y2="282" stroke="#9673a6"/><line x1="890" y1="198" x2="890" y2="282" stroke="#9673a6"/><text x="810" y="243.6" text-anchor="middle" font-size="12" fill="#3a2a4d">Payment &amp; Exceptions</text><rect x="548" y="212" width="104" height="56" rx="28" ry="28" fill="#dae8fc" stroke="#6c8ebf" stroke-width="1.5"/><text x="600" y="243.6" text-anchor="middle" font-size="12" fill="#0a2a5e">End</text><text x="40" y="360" dominant-baseline="central" font-size="11" font-weight="700" fill="#333333">Legend</text><rect x="100" y="350" width="20" height="20" rx="3" fill="#dae8fc" stroke="#6c8ebf"/><text x="124" y="360" dominant-baseline="central" font-size="11" fill="#333333">Start / End</text><rect x="282" y="350" width="20" height="20" rx="3" fill="#e1d5e7" stroke="#9673a6"/><text x="306" y="360" dominant-baseline="central" font-size="11" fill="#333333">Phase (see its own page)</text><text x="1150" y="361" text-anchor="end" dominant-baseline="central" font-size="11" fill="#888888">Mapped with GrowThriveScale · growthrivescale.com · v1.2.0</text></svg>